<svg width="734" height="258" viewBox="0 0 734 258" fill="none" xmlns="http://www.w3.org/2000/svg">
<path d="M87.485 135.498H73.2608L72.2375 115.544C71.146 122.775 67.9396 128.267 62.6183 132.019C57.3653 135.703 50.1679 137.545 41.0262 137.545C37.0694 137.545 33.3172 137.204 29.7697 136.522C26.2904 135.908 23.0158 134.953 19.9458 133.656C13.8741 130.996 9.13269 126.902 5.72162 121.376C2.31055 115.851 0.605014 108.721 0.605014 99.989V99.4774C0.605014 97.7878 0.686377 96.1505 0.849105 94.5655H18.6541C18.4237 96.19 18.3085 97.9296 18.3085 99.7844V99.8867C18.3085 107.527 20.4575 113.258 24.7554 117.078C29.0534 120.899 35.5003 122.809 44.0962 122.809C52.0099 122.809 58.1498 121.752 62.516 119.637C66.9504 117.522 69.6792 114.418 70.7025 110.325H42.1519V96.1004H87.485V135.498Z" fill="black"/>
<path d="M657.254 94.5655V135.498H674.343V111.962H694.912C699.551 111.962 703.167 112.371 705.759 113.19C708.42 114.009 710.33 115.441 711.49 117.488C712.036 118.511 712.445 119.739 712.718 121.172C712.991 122.604 713.127 124.242 713.127 126.084V130.586C713.127 131.541 713.229 132.531 713.434 133.554C713.707 134.509 714.287 135.157 715.174 135.498H733.082C732.331 135.021 731.854 134.339 731.649 133.452C731.445 132.565 731.342 131.678 731.342 130.791V125.981C731.342 119.5 730.08 114.657 727.556 111.45C725.1 108.244 721.211 106.061 715.89 104.901C721.348 103.537 725.373 101.353 727.965 98.3517C728.9 97.2448 729.666 95.9828 730.264 94.5655H711.283C709.681 95.6903 707.533 96.4407 704.838 96.8167C703.405 96.9532 701.836 97.0896 700.131 97.2261C698.494 97.2943 696.72 97.3284 694.81 97.3284H674.343V94.5655H657.254Z" fill="black"/>
<path d="M573.409 94.5655H634.911V106.129H589.885V120.558H645.246V135.498H573.409V94.5655Z" fill="black"/>
<path d="M471.937 94.5655H489.742C489.511 96.19 489.396 97.9296 489.396 99.7844V99.8867C489.396 107.527 491.545 113.258 495.843 117.078C500.141 120.899 506.588 122.809 515.184 122.809C523.098 122.809 529.237 121.752 533.604 119.637C538.038 117.522 540.767 114.418 541.79 110.325H513.24V96.1004H558.573V135.498H544.349L543.325 115.544C542.234 122.775 539.027 128.267 533.706 132.019C528.453 135.703 521.256 137.545 512.114 137.545C508.157 137.545 504.405 137.204 500.857 136.522C497.378 135.908 494.103 134.953 491.033 133.656C484.962 130.996 480.22 126.902 476.809 121.376C473.398 115.851 471.693 108.721 471.693 99.989V99.4774C471.693 97.7878 471.774 96.1505 471.937 94.5655Z" fill="black"/>
<path d="M374.401 94.5655H392.206C391.976 96.19 391.861 97.9296 391.861 99.7844V99.8867C391.861 107.527 394.01 113.258 398.308 117.078C402.606 120.899 409.053 122.809 417.648 122.809C425.562 122.809 431.702 121.752 436.068 119.637C440.503 117.522 443.232 114.418 444.255 110.325H415.704V96.1004H461.037V135.498H446.813L445.79 115.544C444.698 122.775 441.492 128.267 436.171 132.019C430.918 135.703 423.72 137.545 414.579 137.545C410.622 137.545 406.87 137.204 403.322 136.522C399.843 135.908 396.568 134.953 393.498 133.656C387.426 130.996 382.685 126.902 379.274 121.376C375.863 115.851 374.157 108.721 374.157 99.989V99.4774C374.157 97.7878 374.239 96.1505 374.401 94.5655Z" fill="black"/>
<path d="M331.159 94.5655H347.429V119.534H367.282V135.498H311.306V119.534H331.159V94.5655Z" fill="black"/>
<path fill-rule="evenodd" clip-rule="evenodd" d="M224.241 94.5655H294.906C292.595 96.0364 289.506 97.1279 285.64 97.84C291.507 98.6587 295.771 100.262 298.432 102.65C301.16 105.037 302.525 108.79 302.525 113.906V114.316C302.525 116.976 302.15 119.364 301.399 121.479C300.717 123.594 299.66 125.402 298.227 126.902C295.362 129.972 291.166 132.19 285.64 133.554C280.182 134.85 273.428 135.498 265.378 135.498H224.241V94.5655ZM264.457 104.696C269.779 104.696 273.94 104.901 276.942 105.31C279.944 105.651 282.024 106.402 283.184 107.562C283.798 108.107 284.241 108.824 284.514 109.711C284.855 110.597 285.026 111.621 285.026 112.781V113.19C285.026 115.305 284.446 116.942 283.286 118.102C282.127 119.262 279.978 120.046 276.839 120.455C275.27 120.728 273.36 120.933 271.109 121.069C268.858 121.138 266.231 121.172 263.229 121.172H240.921V104.696H264.457Z" fill="black"/>
<path d="M98.3639 94.5655C98.2149 96.0867 98.1403 97.6557 98.1403 99.2727V99.7844C98.1403 108.517 99.9482 115.68 103.564 121.274C107.18 126.8 112.262 130.893 118.811 133.554C122.086 134.918 125.634 135.908 129.454 136.522C133.274 137.204 137.368 137.545 141.734 137.545C150.262 137.545 157.8 136.181 164.349 133.452C170.967 130.655 176.117 126.493 179.801 120.967C181.712 118.17 183.11 115.032 183.997 111.553C184.952 108.005 185.43 104.116 185.43 99.8867V99.1704C185.43 97.5891 185.36 96.0542 185.219 94.5655H167.392C167.615 96.1457 167.726 97.8512 167.726 99.682V99.7844C167.726 105.242 166.669 109.608 164.554 112.883C162.439 116.158 159.437 118.477 155.549 119.841C153.638 120.592 151.524 121.138 149.204 121.479C146.885 121.82 144.36 121.99 141.632 121.99C133.581 121.99 127.271 120.183 122.7 116.567C118.129 112.951 115.844 107.323 115.844 99.682V99.5797C115.844 97.8008 115.948 96.1294 116.157 94.5655H98.3639Z" fill="black"/>
<path d="M87.485 196.177H73.2608L72.2375 176.222C71.146 183.454 67.9396 188.946 62.6183 192.698C57.3653 196.382 50.1679 198.224 41.0262 198.224C37.0694 198.224 33.3172 197.883 29.7697 197.2C26.2904 196.586 23.0158 195.631 19.9458 194.335C13.8741 191.674 9.13269 187.581 5.72162 182.055C2.31055 176.529 0.605014 169.4 0.605014 160.668V160.156C0.605014 158.466 0.686377 156.829 0.849105 155.244H18.6541C18.4237 156.869 18.3085 158.608 18.3085 160.463V160.565C18.3085 168.206 20.4575 173.937 24.7554 177.757C29.0534 181.578 35.5003 183.488 44.0962 183.488C52.0099 183.488 58.1498 182.43 62.516 180.316C66.9504 178.201 69.6792 175.097 70.7025 171.003H42.1519V156.779H87.485V196.177Z" fill="black"/>
<path d="M657.254 155.244V196.177H674.343V172.641H694.912C699.551 172.641 703.167 173.05 705.759 173.869C708.42 174.687 710.33 176.12 711.49 178.167C712.036 179.19 712.445 180.418 712.718 181.85C712.991 183.283 713.127 184.92 713.127 186.762V191.265C713.127 192.22 713.229 193.209 713.434 194.233C713.707 195.188 714.287 195.836 715.174 196.177H733.082C732.331 195.699 731.854 195.017 731.649 194.13C731.445 193.243 731.342 192.357 731.342 191.47V186.66C731.342 180.179 730.08 175.335 727.556 172.129C725.1 168.923 721.211 166.739 715.89 165.58C721.348 164.215 725.373 162.032 727.965 159.03C728.9 157.924 729.666 156.662 730.264 155.244H711.283C709.681 156.369 707.533 157.119 704.838 157.495C703.405 157.632 701.836 157.768 700.131 157.905C698.494 157.973 696.72 158.007 694.81 158.007H674.343V155.244H657.254Z" fill="black"/>
<path d="M573.409 155.244H634.911V166.808H589.885V181.236H645.246V196.177H573.409V155.244Z" fill="black"/>
<path d="M471.937 155.244H489.742C489.511 156.869 489.396 158.608 489.396 160.463V160.565C489.396 168.206 491.545 173.937 495.843 177.757C500.141 181.578 506.588 183.488 515.184 183.488C523.098 183.488 529.237 182.43 533.604 180.316C538.038 178.201 540.767 175.097 541.79 171.003H513.24V156.779H558.573V196.177H544.349L543.325 176.222C542.234 183.454 539.027 188.946 533.706 192.698C528.453 196.382 521.256 198.224 512.114 198.224C508.157 198.224 504.405 197.883 500.857 197.2C497.378 196.586 494.103 195.631 491.033 194.335C484.962 191.674 480.22 187.581 476.809 182.055C473.398 176.529 471.693 169.4 471.693 160.668V160.156C471.693 158.466 471.774 156.829 471.937 155.244Z" fill="black"/>
<path d="M374.401 155.244H392.206C391.976 156.869 391.861 158.608 391.861 160.463V160.565C391.861 168.206 394.01 173.937 398.308 177.757C402.606 181.578 409.053 183.488 417.648 183.488C425.562 183.488 431.702 182.43 436.068 180.316C440.503 178.201 443.232 175.097 444.255 171.003H415.704V156.779H461.037V196.177H446.813L445.79 176.222C444.698 183.454 441.492 188.946 436.171 192.698C430.918 196.382 423.72 198.224 414.579 198.224C410.622 198.224 406.87 197.883 403.322 197.2C399.843 196.586 396.568 195.631 393.498 194.335C387.426 191.674 382.685 187.581 379.274 182.055C375.863 176.529 374.157 169.4 374.157 160.668V160.156C374.157 158.466 374.239 156.829 374.401 155.244Z" fill="black"/>
<path d="M331.159 155.244H347.429V180.213H367.282V196.177H311.306V180.213H331.159V155.244Z" fill="black"/>
<path fill-rule="evenodd" clip-rule="evenodd" d="M224.241 155.244H294.906C292.595 156.715 289.506 157.807 285.64 158.519C291.507 159.337 295.771 160.941 298.432 163.328C301.16 165.716 302.525 169.468 302.525 174.585V174.994C302.525 177.655 302.15 180.043 301.399 182.157C300.717 184.272 299.66 186.08 298.227 187.581C295.362 190.651 291.166 192.868 285.64 194.233C280.182 195.529 273.428 196.177 265.378 196.177H224.241V155.244ZM264.457 165.375C269.779 165.375 273.94 165.58 276.942 165.989C279.944 166.33 282.024 167.081 283.184 168.24C283.798 168.786 284.241 169.502 284.514 170.389C284.855 171.276 285.026 172.299 285.026 173.459V173.869C285.026 175.983 284.446 177.621 283.286 178.781C282.127 179.94 279.978 180.725 276.839 181.134C275.27 181.407 273.36 181.612 271.109 181.748C268.858 181.816 266.231 181.85 263.229 181.85H240.921V165.375H264.457Z" fill="black"/>
<path d="M98.3639 155.244C98.2149 156.765 98.1403 158.334 98.1403 159.951V160.463C98.1403 169.195 99.9482 176.359 103.564 181.953C107.18 187.479 112.262 191.572 118.811 194.233C122.086 195.597 125.634 196.586 129.454 197.2C133.274 197.883 137.368 198.224 141.734 198.224C150.262 198.224 157.8 196.859 164.349 194.13C170.967 191.333 176.117 187.172 179.801 181.646C181.712 178.849 183.11 175.711 183.997 172.231C184.952 168.684 185.43 164.795 185.43 160.565V159.849C185.43 158.268 185.36 156.733 185.219 155.244H167.392C167.615 156.824 167.726 158.53 167.726 160.361V160.463C167.726 165.921 166.669 170.287 164.554 173.562C162.439 176.836 159.437 179.156 155.549 180.52C153.638 181.271 151.524 181.816 149.204 182.157C146.885 182.499 144.36 182.669 141.632 182.669C133.581 182.669 127.271 180.861 122.7 177.246C118.129 173.63 115.844 168.002 115.844 160.361V160.258C115.844 158.48 115.948 156.808 116.157 155.244H98.3639Z" fill="black"/>
<path d="M87.485 255.933H73.2608L72.2375 235.978C71.146 243.21 67.9396 248.701 62.6183 252.454C57.3653 256.138 50.1679 257.979 41.0262 257.979C37.0694 257.979 33.3172 257.638 29.7697 256.956C26.2904 256.342 23.0158 255.387 19.9458 254.091C13.8741 251.43 9.13269 247.337 5.72162 241.811C2.31055 236.285 0.605014 229.156 0.605014 220.424V219.912C0.605014 218.222 0.686377 216.585 0.849105 215H18.6541C18.4237 216.625 18.3085 218.364 18.3085 220.219V220.321C18.3085 227.962 20.4575 233.693 24.7554 237.513C29.0534 241.333 35.5003 243.244 44.0962 243.244C52.0099 243.244 58.1498 242.186 62.516 240.071C66.9504 237.957 69.6792 234.852 70.7025 230.759H42.1519V216.535H87.485V255.933Z" fill="black"/>
<path d="M657.254 215V255.933H674.343V232.396H694.912C699.551 232.396 703.167 232.806 705.759 233.624C708.42 234.443 710.33 235.876 711.49 237.922C712.036 238.946 712.445 240.174 712.718 241.606C712.991 243.039 713.127 244.676 713.127 246.518V251.021C713.127 251.976 713.229 252.965 713.434 253.989C713.707 254.944 714.287 255.592 715.174 255.933H733.082C732.331 255.455 731.854 254.773 731.649 253.886C731.445 252.999 731.342 252.112 731.342 251.226V246.416C731.342 239.935 730.08 235.091 727.556 231.885C725.1 228.678 721.211 226.495 715.89 225.336C721.348 223.971 725.373 221.788 727.965 218.786C728.9 217.679 729.666 216.417 730.264 215H711.283C709.681 216.125 707.533 216.875 704.838 217.251C703.405 217.388 701.836 217.524 700.131 217.661C698.494 217.729 696.72 217.763 694.81 217.763H674.343V215H657.254Z" fill="black"/>
<path d="M573.409 215H634.911V226.564H589.885V240.992H645.246V255.933H573.409V215Z" fill="black"/>
<path d="M471.937 215H489.742C489.511 216.625 489.396 218.364 489.396 220.219V220.321C489.396 227.962 491.545 233.693 495.843 237.513C500.141 241.333 506.588 243.244 515.184 243.244C523.098 243.244 529.237 242.186 533.604 240.071C538.038 237.957 540.767 234.852 541.79 230.759H513.24V216.535H558.573V255.933H544.349L543.325 235.978C542.234 243.21 539.027 248.701 533.706 252.454C528.453 256.138 521.256 257.979 512.114 257.979C508.157 257.979 504.405 257.638 500.857 256.956C497.378 256.342 494.103 255.387 491.033 254.091C484.962 251.43 480.22 247.337 476.809 241.811C473.398 236.285 471.693 229.156 471.693 220.424V219.912C471.693 218.222 471.774 216.585 471.937 215Z" fill="black"/>
<path d="M374.401 215H392.206C391.976 216.625 391.861 218.364 391.861 220.219V220.321C391.861 227.962 394.01 233.693 398.308 237.513C402.606 241.333 409.053 243.244 417.648 243.244C425.562 243.244 431.702 242.186 436.068 240.071C440.503 237.957 443.232 234.852 444.255 230.759H415.704V216.535H461.037V255.933H446.813L445.79 235.978C444.698 243.21 441.492 248.701 436.171 252.454C430.918 256.138 423.72 257.979 414.579 257.979C410.622 257.979 406.87 257.638 403.322 256.956C399.843 256.342 396.568 255.387 393.498 254.091C387.426 251.43 382.685 247.337 379.274 241.811C375.863 236.285 374.157 229.156 374.157 220.424V219.912C374.157 218.222 374.239 216.585 374.401 215Z" fill="black"/>
<path d="M331.159 215H347.429V239.969H367.282V255.933H311.306V239.969H331.159V215Z" fill="black"/>
<path fill-rule="evenodd" clip-rule="evenodd" d="M224.241 215H294.906C292.595 216.471 289.506 217.562 285.64 218.275C291.507 219.093 295.771 220.696 298.432 223.084C301.16 225.472 302.525 229.224 302.525 234.341V234.75C302.525 237.411 302.15 239.798 301.399 241.913C300.717 244.028 299.66 245.836 298.227 247.337C295.362 250.407 291.166 252.624 285.64 253.989C280.182 255.285 273.428 255.933 265.378 255.933H224.241V215ZM264.457 225.131C269.779 225.131 273.94 225.336 276.942 225.745C279.944 226.086 282.024 226.836 283.184 227.996C283.798 228.542 284.241 229.258 284.514 230.145C284.855 231.032 285.026 232.055 285.026 233.215V233.624C285.026 235.739 284.446 237.377 283.286 238.536C282.127 239.696 279.978 240.481 276.839 240.89C275.27 241.163 273.36 241.368 271.109 241.504C268.858 241.572 266.231 241.606 263.229 241.606H240.921V225.131H264.457Z" fill="black"/>
<path d="M98.3639 215C98.2149 216.521 98.1403 218.09 98.1403 219.707V220.219C98.1403 228.951 99.9482 236.115 103.564 241.709C107.18 247.235 112.262 251.328 118.811 253.989C122.086 255.353 125.634 256.342 129.454 256.956C133.274 257.638 137.368 257.979 141.734 257.979C150.262 257.979 157.8 256.615 164.349 253.886C170.967 251.089 176.117 246.928 179.801 241.402C181.712 238.605 183.11 235.466 183.997 231.987C184.952 228.44 185.43 224.551 185.43 220.321V219.605C185.43 218.024 185.36 216.489 185.219 215H167.392C167.615 216.58 167.726 218.286 167.726 220.117V220.219C167.726 225.677 166.669 230.043 164.554 233.317C162.439 236.592 159.437 238.912 155.549 240.276C153.638 241.026 151.524 241.572 149.204 241.913C146.885 242.254 144.36 242.425 141.632 242.425C133.581 242.425 127.271 240.617 122.7 237.001C118.129 233.386 115.844 227.757 115.844 220.117V220.014C115.844 218.235 115.948 216.564 116.157 215H98.3639Z" fill="black"/>
<path d="M73.2608 75.0001H87.485V35.6022H42.1518V49.8264H70.7025C69.6792 53.9197 66.9503 57.0238 62.5159 59.1386C58.1498 61.2535 52.0098 62.3109 44.0961 62.3109C35.5002 62.3109 29.0533 60.4007 24.7554 56.5803C20.4574 52.7599 18.3084 47.0293 18.3084 39.3885V39.2862C18.3084 30.9632 20.628 24.9597 25.267 21.2757C29.9743 17.5236 36.5577 15.6475 45.0171 15.6475C51.9075 15.6475 57.1264 16.6708 60.674 18.7174C64.2897 20.6959 66.5069 23.6635 67.3255 27.6203H86.9733C85.336 18.0693 80.7993 11.1107 73.3631 6.74457C65.927 2.3784 56.3078 0.195312 44.5055 0.195312C36.046 0.195312 28.5075 1.73029 21.8901 4.80025C15.2726 7.87022 10.0536 12.3046 6.23325 18.1034C4.39127 20.9687 2.99273 24.141 2.03763 27.6203C1.08253 31.0996 0.60498 34.8859 0.60498 38.9792V39.4909C0.60498 48.2232 2.31052 55.3523 5.72159 60.8783C9.13266 66.4042 13.8741 70.4975 19.9458 73.1581C23.0157 74.4543 26.2904 75.4094 29.7696 76.0234C33.3172 76.7057 37.0693 77.0468 41.0262 77.0468C50.1679 77.0468 57.3652 75.2048 62.6183 71.5208C67.9395 67.7686 71.146 62.2768 72.2375 55.0453L73.2608 75.0001Z" fill="black"/>
<path d="M141.734 77.0468C150.261 77.0468 157.8 75.6823 164.349 72.9535C170.967 70.1564 176.117 65.9949 179.801 60.469C181.712 57.6719 183.11 54.5337 183.997 51.0544C184.952 47.5069 185.43 43.6183 185.43 39.3885V38.6722C185.43 30.4174 183.519 23.4247 179.699 17.6941C175.947 11.9635 170.762 7.63144 164.145 4.69792C160.802 3.19705 157.254 2.0714 153.502 1.32096C149.818 0.57053 145.861 0.195312 141.631 0.195312C133.24 0.195312 125.77 1.73029 119.221 4.80025C112.671 7.802 107.521 12.1682 103.769 17.8988C101.927 20.7641 100.528 23.9364 99.573 27.4157C98.6179 30.895 98.1403 34.6812 98.1403 38.7745V39.2862C98.1403 48.0185 99.9482 55.1818 103.564 60.7759C107.18 66.3019 112.262 70.3952 118.811 73.0558C122.086 74.4202 125.634 75.4094 129.454 76.0234C133.274 76.7057 137.368 77.0468 141.734 77.0468ZM141.631 61.4923C133.581 61.4923 127.271 59.6844 122.7 56.0687C118.129 52.4529 115.844 46.8247 115.844 39.1839V39.0815C115.844 30.7585 118.129 24.7891 122.7 21.1734C127.271 17.4894 133.615 15.6475 141.734 15.6475C147.123 15.6475 151.728 16.432 155.549 18.0011C159.437 19.502 162.439 21.9579 164.554 25.369C165.645 27.1428 166.43 29.1894 166.908 31.509C167.453 33.7603 167.726 36.3186 167.726 39.1839V39.2862C167.726 44.7439 166.669 49.1101 164.554 52.3847C162.439 55.6593 159.437 57.9789 155.549 59.3433C153.638 60.0937 151.524 60.6395 149.204 60.9806C146.885 61.3217 144.36 61.4923 141.631 61.4923Z" fill="black"/>
<path d="M265.378 75.0001C273.428 75.0001 280.182 74.352 285.64 73.0558C291.166 71.6914 295.362 69.4742 298.227 66.4042C299.66 64.9033 300.717 63.0955 301.399 60.9806C302.15 58.8657 302.525 56.478 302.525 53.8174V53.408C302.525 48.2914 301.16 44.5392 298.432 42.1515C295.771 39.7637 291.507 38.1605 285.64 37.3419C290.825 36.3868 294.611 34.7495 296.999 32.4299C299.455 30.0422 300.683 26.4947 300.683 21.7874V21.1734C300.683 13.8737 297.681 8.85943 291.678 6.13057C285.742 3.40172 276.737 2.03729 264.662 2.03729H224.241V75.0001H265.378ZM265.685 15.5451C270.051 15.5451 273.531 15.7157 276.123 16.0568C278.784 16.3297 280.728 16.9778 281.956 18.0011C282.57 18.5469 283.013 19.2632 283.286 20.1501C283.627 20.9687 283.798 21.9579 283.798 23.1177V23.527C283.798 25.7101 283.048 27.3474 281.547 28.439C280.114 29.4623 278.102 30.1445 275.509 30.4856C274.145 30.6221 272.712 30.7244 271.211 30.7926C269.71 30.8608 268.073 30.895 266.299 30.895H240.921V15.5451H265.685ZM264.457 44.1981C269.779 44.1981 273.94 44.4028 276.942 44.8121C279.944 45.1532 282.024 45.9037 283.184 47.0634C283.798 47.6092 284.241 48.3255 284.514 49.2124C284.855 50.0993 285.026 51.1226 285.026 52.2824V52.6917C285.026 54.8066 284.446 56.4439 283.286 57.6036C282.127 58.7634 279.978 59.548 276.839 59.9573C275.27 60.2302 273.36 60.4348 271.109 60.5713C268.858 60.6395 266.231 60.6736 263.229 60.6736H240.921V44.1981H264.457Z" fill="black"/>
<path d="M367.282 75.0001V59.0363H347.429V17.2848H367.282V2.03729H311.306V17.2848H331.159V59.0363H311.306V75.0001H367.282Z" fill="black"/>
<path d="M446.813 75.0001H461.037V35.6022H415.704V49.8264H444.255C443.232 53.9197 440.503 57.0238 436.068 59.1386C431.702 61.2535 425.562 62.3109 417.648 62.3109C409.053 62.3109 402.606 60.4007 398.308 56.5803C394.01 52.7599 391.861 47.0293 391.861 39.3885V39.2862C391.861 30.9632 394.18 24.9597 398.819 21.2757C403.527 17.5236 410.11 15.6475 418.569 15.6475C425.46 15.6475 430.679 16.6708 434.226 18.7174C437.842 20.6959 440.059 23.6635 440.878 27.6203H460.526C458.888 18.0693 454.352 11.1107 446.915 6.74457C439.479 2.3784 429.86 0.195312 418.058 0.195312C409.598 0.195312 402.06 1.73029 395.442 4.80025C388.825 7.87022 383.606 12.3046 379.786 18.1034C377.944 20.9687 376.545 24.141 375.59 27.6203C374.635 31.0996 374.157 34.8859 374.157 38.9792V39.4909C374.157 48.2232 375.863 55.3523 379.274 60.8783C382.685 66.4042 387.426 70.4975 393.498 73.1581C396.568 74.4543 399.843 75.4094 403.322 76.0234C406.87 76.7057 410.622 77.0468 414.579 77.0468C423.72 77.0468 430.918 75.2048 436.171 71.5208C441.492 67.7686 444.698 62.2768 445.79 55.0453L446.813 75.0001Z" fill="black"/>
<path d="M544.348 75.0001H558.573V35.6022H513.24V49.8264H541.79C540.767 53.9197 538.038 57.0238 533.604 59.1386C529.237 61.2535 523.097 62.3109 515.184 62.3109C506.588 62.3109 500.141 60.4007 495.843 56.5803C491.545 52.7599 489.396 47.0293 489.396 39.3885V39.2862C489.396 30.9632 491.716 24.9597 496.355 21.2757C501.062 17.5236 507.645 15.6475 516.105 15.6475C522.995 15.6475 528.214 16.6708 531.762 18.7174C535.377 20.6959 537.595 23.6635 538.413 27.6203H558.061C556.424 18.0693 551.887 11.1107 544.451 6.74457C537.015 2.3784 527.395 0.195312 515.593 0.195312C507.134 0.195312 499.595 1.73029 492.978 4.80025C486.36 7.87022 481.141 12.3046 477.321 18.1034C475.479 20.9687 474.08 24.141 473.125 27.6203C472.17 31.0996 471.693 34.8859 471.693 38.9792V39.4909C471.693 48.2232 473.398 55.3523 476.809 60.8783C480.22 66.4042 484.962 70.4975 491.033 73.1581C494.103 74.4543 497.378 75.4094 500.857 76.0234C504.405 76.7057 508.157 77.0468 512.114 77.0468C521.256 77.0468 528.453 75.2048 533.706 71.5208C539.027 67.7686 542.234 62.2768 543.325 55.0453L544.348 75.0001Z" fill="black"/>
<path d="M645.246 60.0596H589.885V45.6308H634.911V31.202H589.885V16.4661H643.097V2.03729H573.409V75.0001H645.246V60.0596Z" fill="black"/>
<path d="M695.424 16.5685C699.721 16.5685 703.235 16.8072 705.964 17.2848C708.761 17.6941 710.842 18.581 712.206 19.9454C712.82 20.6276 713.298 21.4804 713.639 22.5037C713.98 23.527 714.15 24.7209 714.15 26.0853V27.4157C714.15 30.281 713.332 32.3958 711.694 33.7603C710.057 35.0565 707.772 35.9092 704.838 36.3186C703.405 36.455 701.836 36.5914 700.131 36.7279C698.493 36.7961 696.72 36.8302 694.81 36.8302H674.343V16.5685H695.424ZM694.912 51.4637C699.551 51.4637 703.167 51.8731 705.759 52.6917C708.42 53.5104 710.33 54.943 711.49 56.9897C712.035 58.013 712.445 59.241 712.718 60.6736C712.991 62.1063 713.127 63.7436 713.127 65.5856V70.0882C713.127 71.0433 713.229 72.0325 713.434 73.0558C713.707 74.0109 714.287 74.659 715.174 75.0001H733.082C732.331 74.5226 731.854 73.8404 731.649 72.9535C731.444 72.0666 731.342 71.1797 731.342 70.2928V65.4832C731.342 59.0022 730.08 54.1585 727.556 50.9521C725.1 47.7457 721.211 45.5626 715.89 44.4028C721.348 43.0384 725.373 40.8553 727.965 37.8535C730.558 34.7836 731.854 30.5197 731.854 25.062C731.854 17.0801 729.023 11.2472 723.36 7.56322C717.698 3.87927 708.454 2.03729 695.628 2.03729H657.254V75.0001H674.343V51.4637H694.912Z" fill="black"/>
</svg>
