<svg width="300" height="297" viewBox="0 0 300 297" fill="none" xmlns="http://www.w3.org/2000/svg">
<g clip-path="url(#clip0_3347_12366)">
<path d="M183.008 14.9343L183.979 18.8205L188.04 19.6908L183.18 1.72976L179.164 0.86923L167.507 15.2909L171.614 16.1708L174.046 13.0139L183.008 14.9343ZM180.426 4.72299L182.126 11.5181L176.182 10.2443L180.426 4.72299Z" fill="white"/>
<path d="M197.622 10.9538L197.689 11.2283L203.042 25.4528L206.516 26.8026L212.494 11.4159L209.019 10.0662L204.886 20.7052L204.832 20.4607L199.546 6.38593L195.92 4.97752L189.943 20.3641L193.439 21.7222L197.622 10.9538Z" fill="white"/>
<path d="M223.243 32.2048L222.926 36.1882L226.49 38.3017L227.601 19.7725L224.077 17.6827L208.471 27.6162L212.075 29.7533L215.379 27.541L223.243 32.2048ZM224.047 21.7281L223.495 28.6941L218.278 25.6007L224.047 21.7281Z" fill="white"/>
<path d="M228.078 39.6151L239.689 48.9934L241.994 46.1403L233.452 39.2414L241.547 29.2192L238.477 26.7397L228.078 39.6151Z" fill="white"/>
<path d="M241.594 51.1876L244.473 54.0374L249.196 49.2652L261.762 47.9225L258.388 44.5842L250.077 45.6099L251.296 37.5656L247.906 34.211L246.365 46.366L241.594 51.1876Z" fill="white"/>
<path d="M250.225 59.8805L260.398 73.2014L263.14 71.1076L256.338 62.2025L270.702 65.3323L273.517 63.1824L263.722 50.3582L261.128 52.3395L267.873 61.1711L252.782 57.9272L250.225 59.8805Z" fill="white"/>
<path d="M269.892 89.885L272.843 88.238L266.741 77.3006L269.591 75.71L274.555 84.6056L277.405 83.015L272.442 74.1195L275.353 72.4951L281.219 83.008L284.07 81.4175L276.388 67.6496L261.973 75.6926L269.892 89.885Z" fill="white"/>
<path d="M281.859 145.762C281.922 149.651 283.199 152.687 285.749 154.312C287.036 155.171 288.617 155.539 290.538 155.508L290.7 155.505C294.45 155.445 297.013 153.597 298.307 150.566C298.954 149.027 299.274 147.378 299.243 145.457C299.181 141.637 297.743 138.627 295.099 136.957C293.789 136.145 292.208 135.73 290.356 135.76L290.241 135.762C286.259 135.827 283.833 137.557 282.678 140.562C282.077 142.054 281.827 143.771 281.859 145.762ZM285.377 145.682C285.318 142.024 286.857 139.823 290.329 139.767L290.352 139.766C294.125 139.705 295.688 141.856 295.748 145.537C295.788 147.99 295.168 149.737 293.633 150.734C292.83 151.234 291.816 151.482 290.519 151.503L290.496 151.503C288.019 151.543 286.568 150.571 285.914 148.822C285.553 147.948 285.397 146.932 285.377 145.682Z" fill="white"/>
<path d="M286.473 163.403L285.72 168.3C284.856 173.765 286.302 176.704 289.986 177.271C292.663 177.682 294.469 176.906 295.676 174.538C296.259 173.34 296.714 171.747 297.035 169.664L298.315 161.335L282 158.827L281.416 162.625L286.473 163.403ZM294.505 164.638L293.805 169.191C293.481 171.296 293.136 172.625 292.328 173.157C291.932 173.447 291.381 173.527 290.603 173.407C288.818 173.133 288.468 171.908 288.982 168.567L289.699 163.899L294.505 164.638Z" fill="white"/>
<path d="M288.741 190.47L286.939 196.407L290.106 197.368L294.788 181.95L291.62 180.988L289.898 186.659L277.271 182.825L276.114 186.636L288.741 190.47Z" fill="white"/>
<path d="M273.319 194.781L268.127 206.305L271.413 207.786L273.255 203.699L281.85 207.572L280.009 211.659L283.148 213.073L288.34 201.549L285.201 200.135L283.359 204.222L274.764 200.349L276.605 196.262L273.319 194.781Z" fill="white"/>
<path d="M274.177 218.395L265.105 219.744L264.955 219.978L267.397 229.063L258.031 223.039L256.002 226.194L269.885 235.123L271.714 232.281L269.037 222.576L278.815 221.24L280.781 218.184L266.898 209.254L264.869 212.408L274.177 218.395Z" fill="white"/>
<path d="M253.867 228.562L245.522 238.087L248.239 240.467L251.198 237.089L258.303 243.313L255.344 246.691L257.938 248.964L266.283 239.439L263.689 237.166L260.729 240.544L253.624 234.32L256.584 230.942L253.867 228.562Z" fill="white"/>
<path d="M243.775 240.006L231.204 251.068L233.48 253.655L241.884 246.26L239.76 260.792L242.098 263.448L254.201 252.798L252.046 250.35L243.712 257.684L245.899 242.419L243.775 240.006Z" fill="white"/>
<path d="M215.198 261.708L217.045 264.539L227.536 257.697L229.319 260.432L220.786 265.996L222.569 268.73L231.102 263.166L232.923 265.958L222.839 272.534L224.622 275.269L237.828 266.657L228.811 252.83L215.198 261.708Z" fill="white"/>
<path d="M161.609 291.278L155.404 291.837L155.702 295.147L171.815 293.697L171.518 290.386L165.591 290.92L164.403 277.724L160.421 278.082L161.609 291.278Z" fill="white"/>
<path d="M135.215 277.727L135.046 281.103L147.555 281.728L147.393 284.989L137.219 284.48L137.056 287.741L147.23 288.249L147.063 291.578L135.04 290.978L134.877 294.238L150.623 295.025L151.447 278.538L135.215 277.727Z" fill="white"/>
<path d="M124.114 275.151C118.42 273.989 115.466 275.49 114.758 278.961C114.304 281.185 115.111 282.673 117.45 283.835C118.606 284.426 120.13 284.949 122.062 285.438C124.313 285.992 125.591 286.442 126.239 286.858C126.91 287.278 126.99 287.697 126.874 288.264C126.638 289.421 125.523 289.902 122.483 289.282C119.42 288.657 117.643 287.869 117.611 285.712L113.55 284.883C113.465 289.119 116.14 291.296 121.767 292.444C127.053 293.523 130.115 292.068 130.754 288.937C131.217 286.669 130.46 285.167 128.434 284.092C127.415 283.529 126.095 283.047 124.48 282.623C121.205 281.766 119.572 281.314 118.943 280.69C118.644 280.416 118.541 279.993 118.648 279.471C118.921 278.133 120.375 277.839 123.348 278.445C126.592 279.107 128.477 280.177 128.563 282.535L132.692 283.377C132.713 280.38 131.718 278.31 129.198 276.874C127.93 276.143 126.247 275.587 124.114 275.151Z" fill="white"/>
<path d="M100.86 282.659L95.0279 280.611L93.9354 283.723L109.082 289.04L110.174 285.928L104.603 283.973L108.958 271.568L105.215 270.254L100.86 282.659Z" fill="white"/>
<path d="M52.5144 242.256L49.159 238.611C45.4287 234.524 42.2301 233.818 39.4878 236.343C37.4949 238.177 36.974 240.073 38.0699 242.494C38.6427 243.697 39.6026 245.048 41.0295 246.598L46.7368 252.798L58.8816 241.619L56.2788 238.791L52.5144 242.256ZM46.5357 247.76L43.4155 244.37C41.973 242.803 41.1501 241.704 41.2391 240.741C41.2594 240.25 41.5414 239.77 42.1206 239.237C43.4492 238.014 44.6249 238.505 46.9141 240.992L50.1127 244.467L46.5357 247.76Z" fill="white"/>
<path d="M41.0992 219.387C39.0119 216.293 36.541 214.745 33.3928 215.135C31.7996 215.343 30.0871 216.079 28.1655 217.376L22.0358 221.511L24.3175 224.893L30.3512 220.822C32.8685 219.124 34.628 218.748 36.0275 219.537C36.7368 219.925 37.3702 220.533 37.9796 221.436C39.1723 223.204 39.4126 224.803 38.3863 226.39C37.8636 227.191 36.9873 228.005 35.7575 228.835L29.7238 232.906L32.0056 236.288L38.1354 232.152C41.9977 229.546 43.481 226.896 43.0469 223.973C42.8138 222.508 42.1882 221.001 41.0992 219.387Z" fill="white"/>
<path d="M34.1326 209.04L30.2407 200.586C28.711 197.264 27.1704 195.246 25.3664 194.649C24.4855 194.341 23.4667 194.453 22.3731 194.957L22.289 194.995C20.165 195.973 19.8079 197.412 20.5848 199.985C19.1977 198.024 17.8998 197.475 15.9651 198.365L15.8389 198.424C12.8317 199.808 13.0197 202.652 15.3142 207.636L19.1384 215.943L34.1326 209.04ZM20.3363 211.237L17.9934 206.148C17.1607 204.34 16.7705 203.27 16.9587 202.572C17.0739 202.213 17.3522 201.932 17.8359 201.71L17.9201 201.671C18.8243 201.254 19.4933 201.711 20.1343 202.716C20.4588 203.255 20.7509 203.834 21.0897 204.57L23.4907 209.785L20.3363 211.237ZM26.2246 208.527L23.9979 203.69C22.9813 201.482 22.554 200.277 22.815 199.57C22.9301 199.211 23.2295 198.921 23.7132 198.698L23.7974 198.659C24.6806 198.253 25.2965 198.428 26.065 199.654C26.4703 200.258 26.9286 201.143 27.4998 202.383L29.6104 206.968L26.2246 208.527Z" fill="white"/>
<path d="M25.9836 190.42L21.7657 176.144L18.2577 177.181L21.3605 187.682L9.03809 191.323L10.1533 195.098L25.9836 190.42Z" fill="white"/>
<path d="M21.3179 173.654L19.326 161.148L15.7593 161.716L16.4658 166.152L7.13767 167.637L6.43119 163.202L3.0246 163.745L5.01656 176.251L8.42315 175.708L7.71668 171.273L17.0448 169.787L17.7513 174.222L21.3179 173.654Z" fill="white"/>
<path d="M19.1898 149.434C19.0387 143.625 16.9115 141.086 13.3706 141.178C11.1025 141.237 9.83477 142.359 9.22923 144.899C8.91459 146.158 8.74783 147.76 8.70703 149.753C8.67466 152.07 8.52442 153.417 8.26537 154.141C8.00691 154.889 7.61768 155.061 7.0391 155.076C5.85878 155.107 5.13859 154.13 5.05793 151.029C4.97666 147.904 5.34388 145.996 7.43789 145.478L7.33013 141.335C3.18418 142.208 1.66675 145.304 1.81604 151.044C1.9563 156.436 4.06336 159.091 7.25715 159.008C9.5715 158.948 10.8636 157.872 11.4544 155.656C11.7727 154.536 11.9448 153.142 11.9941 151.474C12.0913 148.09 12.1631 146.397 12.6298 145.644C12.8291 145.292 13.2177 145.096 13.75 145.082C15.1155 145.047 15.7296 146.397 15.8085 149.429C15.8945 152.739 15.277 154.816 13.0002 155.431L13.1098 159.643C16.0339 158.988 17.8261 157.552 18.6571 154.774C19.0839 153.374 19.2464 151.609 19.1898 149.434Z" fill="white"/>
<path d="M14.0231 124.002L20.3611 124.814L20.8494 121.002L4.47636 118.905L3.98803 122.717L10.349 123.532L9.12815 133.062L2.76723 132.247L2.27302 136.105L18.6461 138.202L19.1403 134.344L12.8023 133.532L14.0231 124.002Z" fill="white"/>
<path d="M39.3024 75.0829L44.7934 67.5444C46.9516 64.5815 47.963 62.2472 47.6028 60.3775C47.4414 59.4563 46.8451 58.62 45.8699 57.9098L45.7949 57.8551C43.9009 56.4755 42.4678 56.8668 40.597 58.8048C41.6339 56.6325 41.4798 55.2286 39.7545 53.972L39.642 53.89C36.9604 51.9367 34.5645 53.4923 31.3272 57.9366L25.9318 65.3439L39.3024 75.0829ZM30.6336 64.0902L33.9392 59.5521C35.1138 57.9394 35.8582 57.0752 36.561 56.8983C36.9312 56.8235 37.3132 56.9295 37.7445 57.2437L37.8195 57.2983C38.6259 57.8857 38.5537 58.6941 37.9883 59.7461C37.6758 60.2934 37.3121 60.8322 36.834 61.4885L33.4465 66.1391L30.6336 64.0902ZM35.8843 67.9148L39.0259 63.6017C40.4602 61.6327 41.3052 60.6696 42.0507 60.5525C42.4209 60.4777 42.8216 60.5974 43.2529 60.9116L43.3279 60.9662C44.1155 61.5399 44.2635 62.1643 43.5666 63.4362C43.2369 64.0858 42.6871 64.9195 41.8812 66.0259L38.9035 70.114L35.8843 67.9148Z" fill="white"/>
<path d="M58.6933 52.4501C61.4937 49.7275 62.8351 46.7048 62.2688 43.7211C62.0109 42.1885 61.1922 40.7795 59.8472 39.396L59.7337 39.2793C57.1084 36.5789 53.9931 35.9761 50.8862 37.1161C49.3161 37.7022 47.8895 38.6028 46.506 39.9479C43.7556 42.6219 42.5444 45.745 43.1421 48.8278C43.4496 50.3447 44.2349 51.7861 45.5313 53.1196L45.6124 53.2029C48.3998 56.07 51.3344 56.6539 54.3274 55.4301C55.8318 54.843 57.2598 53.8438 58.6933 52.4501ZM56.2133 49.9326C53.5796 52.4931 50.9108 52.883 48.4799 50.3827L48.4637 50.366C45.8221 47.649 46.3194 45.0255 48.9698 42.4487C50.7367 40.7309 52.4406 39.9822 54.2265 40.4183C55.1437 40.6614 56.0235 41.2328 56.931 42.1663L56.9472 42.1829C58.6813 43.9665 58.9693 45.6968 58.14 47.3785C57.7496 48.2444 57.1134 49.0575 56.2133 49.9326Z" fill="white"/>
<path d="M75.9051 38.3544C79.0944 36.1374 80.9009 33.3894 80.8293 30.37C80.8249 28.8244 80.2503 27.3091 79.155 25.7335L79.0627 25.6006C76.9249 22.5252 73.9662 21.4283 70.7328 22.0427C69.0972 22.3631 67.5514 23.0153 65.9757 24.1106C62.8434 26.2879 61.1482 29.1557 61.2346 32.2774C61.2901 33.8156 61.8268 35.3572 62.8825 36.8759L62.9485 36.9709C65.2182 40.2361 68.0028 41.2851 71.138 40.57C72.7093 40.238 74.2724 39.4893 75.9051 38.3544ZM73.8803 35.482C70.8808 37.567 68.1989 37.5165 66.2195 34.6689L66.2063 34.6499C64.0553 31.5555 64.9689 29.0622 67.9873 26.964C69.9996 25.5652 71.7929 25.107 73.4744 25.8247C74.335 26.212 75.1054 26.9153 75.8444 27.9784L75.8576 27.9974C77.2696 30.0287 77.2715 31.7732 76.185 33.2887C75.6615 34.0749 74.9054 34.7694 73.8803 35.482Z" fill="white"/>
<path d="M94.7559 27.5727C99.9858 25.0739 101.433 22.1046 99.9103 18.9166C98.9347 16.8747 97.3979 16.1757 94.8381 16.6566C93.5636 16.8816 92.0363 17.381 90.2046 18.1538C88.0812 19.0659 86.793 19.4767 86.0277 19.5352C85.2414 19.6038 84.9264 19.3192 84.6775 18.7983C84.1698 17.7357 84.7671 16.6825 87.5591 15.3486C90.372 14.0046 92.2598 13.5634 93.5824 15.2603L97.3121 13.4784C94.8326 10.0564 91.3953 9.93277 86.2279 12.4016C81.3731 14.7212 79.8113 17.7195 81.1851 20.5949C82.1806 22.6785 83.6857 23.4182 85.9439 23.0558C87.0933 22.8905 88.4331 22.4808 89.9731 21.8473C93.0948 20.5606 94.6656 19.9381 95.5414 20.0571C95.9436 20.0953 96.2795 20.3698 96.5085 20.8491C97.0958 22.0784 96.1154 23.1866 93.3858 24.4908C90.4063 25.9143 88.2631 26.1961 86.7775 24.3722L82.9854 26.184C84.7705 28.5814 86.8072 29.6301 89.6749 29.2581C91.1242 29.0775 92.7973 28.5084 94.7559 27.5727Z" fill="white"/>
<path d="M108.966 7.50987L114.888 5.65963L113.901 2.49962L98.5208 7.30473L99.5081 10.4647L105.165 8.69734L109.1 21.2931L112.901 20.1057L108.966 7.50987Z" fill="white"/>
<path d="M156.106 2.72949L155.785 3.03963L160.555 7.78917L127.752 7.78917V8.23223L160.555 8.23223L155.785 12.9729L156.106 13.2919L161.42 8.0107L156.106 2.72949Z" fill="#00E94F" stroke="#00E94F" stroke-width="0.330076"/>
<path d="M291.833 121.56L291.468 121.304L287.712 126.89L281.475 94.6858L281.04 94.77L287.277 126.974L281.716 123.193L281.464 123.568L287.659 127.781L291.833 121.56Z" fill="#00E94F" stroke="#00E94F" stroke-width="0.330076"/>
<path d="M188.682 288.456L188.853 288.044L182.592 285.573L212.709 272.574L212.533 272.167L182.416 285.167L184.917 278.924L184.496 278.758L181.71 285.713L188.682 288.456Z" fill="#00E94F" stroke="#00E94F" stroke-width="0.330076"/>
<path d="M64.8031 261.951L65.2431 261.876L63.9852 255.263L91.0661 273.774L91.3162 273.408L64.2352 254.897L70.8485 253.675L70.7635 253.231L63.3962 254.592L64.8031 261.951Z" fill="#00E94F" stroke="#00E94F" stroke-width="0.330076"/>
<path d="M17.5596 81.4732L17.7517 81.8761L23.7707 78.8623L13.3481 109.965L13.7682 110.106L24.1908 79.003L27.1702 85.0323L27.5747 84.8293L24.2556 78.1126L17.5596 81.4732Z" fill="#00E94F" stroke="#00E94F" stroke-width="0.330076"/>
</g>
<defs>
<clipPath id="clip0_3347_12366">
<rect width="300" height="297" fill="white"/>
</clipPath>
</defs>
</svg>
